<?xml version="1.0" standalone="no"?>
<!DOCTYPE svg PUBLIC "-//W3C//DTD SVG 20010904//EN"
 "http://www.w3.org/TR/2001/REC-SVG-20010904/DTD/svg10.dtd">
<svg version="1.0" xmlns="http://www.w3.org/2000/svg"
 width="512.000000pt" height="512.000000pt" viewBox="0 0 512.000000 512.000000"
 preserveAspectRatio="xMidYMid meet">

<g transform="translate(0.000000,512.000000) scale(0.100000,-0.100000)"
fill="#000000" stroke="none">
<path d="M2535 5094 c-28 -28 -90 -125 -159 -249 -140 -250 -522 -1030 -793
-1620 -64 -137 -118 -253 -122 -257 -3 -4 -71 -21 -151 -38 -186 -41 -348 -90
-481 -146 l-106 -45 -6 -172 c-4 -94 -7 -224 -7 -288 l0 -116 94 -32 c107 -35
293 -83 408 -104 l78 -15 -30 38 c-47 59 -79 140 -92 229 -27 184 38 317 165
337 31 6 35 9 25 21 -18 22 0 28 151 52 704 110 1471 106 2161 -10 167 -28
164 -27 148 -46 -8 -10 -9 -18 -3 -20 33 -11 78 -48 100 -82 75 -112 50 -345
-51 -477 l-32 -41 77 14 c131 24 348 81 449 119 343 127 418 273 231 454 -142
137 -423 255 -800 335 -68 14 -127 29 -130 33 -3 4 -58 120 -122 257 -287 623
-652 1368 -793 1620 -82 147 -162 265 -180 265 -7 0 -20 -7 -29 -16z"/>
<path d="M1922 2580 c-58 -36 -72 -72 -72 -188 0 -75 5 -113 16 -138 44 -93
190 -100 244 -11 28 45 29 236 2 286 -36 66 -125 90 -190 51z"/>
<path d="M3080 2592 c-32 -14 -60 -39 -75 -68 -21 -41 -21 -233 0 -275 49 -94
203 -92 248 4 26 54 24 231 -3 275 -35 58 -116 88 -170 64z"/>
<path d="M2397 2209 c-52 -30 -58 -116 -11 -160 25 -23 31 -24 174 -24 143 0
149 1 174 24 48 45 40 132 -13 161 -25 13 -300 13 -324 -1z"/>
<path d="M2522 1754 c-43 -30 -104 -42 -252 -50 l-122 -7 5 -39 c11 -80 63
-104 201 -93 116 10 296 10 412 0 139 -11 190 13 201 94 l6 41 -51 0 c-145 0
-312 30 -352 64 -13 11 -20 9 -48 -10z"/>
<path d="M1245 1113 c-76 -16 -180 -56 -249 -97 l-44 -26 20 -52 c78 -206 -22
-495 -209 -605 l-43 -25 0 -154 0 -154 1915 0 1915 0 0 148 c0 243 -24 370
-97 517 -141 283 -435 465 -752 465 l-89 0 -12 -37 c-7 -21 -30 -71 -51 -111
-27 -51 -39 -86 -39 -115 0 -79 -34 -174 -87 -244 -27 -35 -132 -93 -168 -93
-19 0 -23 -7 -29 -46 -16 -119 -72 -201 -151 -223 -50 -14 -149 -14 -195 -1
-32 9 -37 7 -70 -24 -129 -124 -371 -124 -500 0 -33 31 -38 33 -70 24 -46 -13
-145 -13 -195 1 -79 22 -135 104 -151 223 -6 38 -10 46 -28 46 -34 0 -118 44
-154 81 -59 60 -102 167 -102 256 0 29 -12 64 -39 115 -21 40 -44 90 -51 111
l-12 37 -96 -1 c-53 0 -128 -7 -167 -16z"/>
<path d="M162 511 c-8 -24 -12 -124 -12 -275 l0 -236 135 0 135 0 0 153 0 153
-66 43 c-63 42 -144 134 -159 181 -10 30 -21 24 -33 -19z"/>
</g>
</svg>
