<svg width="700" height="700" viewBox="0 0 700 700" fill="none" xmlns="http://www.w3.org/2000/svg">
<rect width="700" height="700" fill="black"/>
<circle cx="350" cy="350" r="240" fill="#E5FCFF" stroke="#669CAF" stroke-width="40"/>
<line x1="143" y1="209.5" x2="370" y2="209.5" stroke="#2D6790" stroke-opacity="0.6" stroke-width="29"/>
<line x1="147" y1="496.5" x2="371" y2="496.5" stroke="#2D6790" stroke-opacity="0.6" stroke-width="29"/>
<line x1="118.999" y1="421.766" x2="497" y2="421.766" stroke="#2D6790" stroke-opacity="0.6" stroke-width="29"/>
<line x1="118" y1="283.5" x2="500" y2="283.5" stroke="#2D6790" stroke-opacity="0.6" stroke-width="29"/>
<line x1="118" y1="351.5" x2="521" y2="351.5" stroke="#2D6790" stroke-opacity="0.6" stroke-width="29"/>
<circle cx="350" cy="350" r="240" fill="#00DDFF" fill-opacity="0.1" stroke="#669CAF" stroke-width="40"/>
<circle cx="368" cy="353" r="140.5" stroke="#1E4266" stroke-width="35"/>
<path d="M420.5 353C420.5 394.76 412.912 431.724 401.37 457.592C395.589 470.547 389.159 479.952 382.903 485.883C376.737 491.727 371.564 493.5 367.5 493.5C363.436 493.5 358.263 491.727 352.097 485.883C345.841 479.952 339.411 470.547 333.63 457.592C322.088 431.724 314.5 394.76 314.5 353C314.5 311.24 322.088 274.276 333.63 248.408C339.411 235.453 345.841 226.048 352.097 220.117C358.263 214.273 363.436 212.5 367.5 212.5C371.564 212.5 376.737 214.273 382.903 220.117C389.159 226.048 395.589 235.453 401.37 248.408C412.912 274.276 420.5 311.24 420.5 353Z" stroke="#1E4266" stroke-width="35"/>
</svg>
